<svg width="50" height="50" viewBox="0 0 50 50" fill="none" xmlns="http://www.w3.org/2000/svg">
<circle cx="25" cy="25" r="23.4859" fill="url(#paint0_linear_45_4822)" fill-opacity="0.3" stroke="white" stroke-width="3.02813"/>
<rect x="6" y="14" width="38.3563" height="22.2062" rx="4.0375" fill="white"/>
<g filter="url(#filter0_d_45_4822)">
<path d="M14.2136 21.9256V23.2983H9.78645V21.9256H14.2136ZM12.4633 23.2983L12.8923 22.2516C13.7274 22.2516 14.4195 22.3774 14.9686 22.6291C15.5291 22.8693 15.9467 23.2011 16.2212 23.6244C16.4958 24.0476 16.633 24.5281 16.633 25.0657C16.633 26.1296 16.2441 26.919 15.4662 27.4337C14.6998 27.9485 13.6015 28.2059 12.1716 28.2059C11.8742 28.2059 11.5653 28.1945 11.245 28.1716C10.9247 28.1602 10.6044 28.1258 10.2841 28.0686C9.96376 28.0229 9.66061 27.96 9.37462 27.8799C8.85984 27.7197 8.60245 27.4166 8.60245 26.9704V18.3907C8.60245 18.1848 8.65393 18.0304 8.75689 17.9274C8.87128 17.813 9.02572 17.7273 9.22019 17.6701C9.60913 17.5557 10.0381 17.4756 10.5071 17.4298C10.9876 17.3841 11.4909 17.3612 12.0172 17.3612C13.3556 17.3612 14.3909 17.5957 15.123 18.0647C15.8666 18.5337 16.2384 19.2544 16.2384 20.2268C16.2384 20.7301 16.1068 21.182 15.8437 21.5824C15.5806 21.9828 15.1745 22.2974 14.6254 22.5262C14.0763 22.7549 13.367 22.8693 12.4976 22.8693L12.3432 21.9256C13.041 21.9256 13.5615 21.7883 13.9047 21.5138C14.2479 21.2278 14.4195 20.8274 14.4195 20.3126C14.4195 19.8093 14.2193 19.4318 13.8189 19.1801C13.4185 18.917 12.8237 18.7854 12.0343 18.7854C11.7026 18.7854 11.3937 18.7969 11.1077 18.8197C10.8332 18.8426 10.5872 18.8769 10.3699 18.9227V26.5929C10.6101 26.6501 10.8961 26.6959 11.2278 26.7302C11.571 26.7531 11.9028 26.7645 12.2231 26.7645C13.0582 26.7645 13.6931 26.6215 14.1278 26.3355C14.5739 26.0496 14.797 25.6091 14.797 25.0143C14.797 24.4766 14.5968 24.0591 14.1964 23.7616C13.8075 23.4528 13.2298 23.2983 12.4633 23.2983ZM23.2291 28.2402C22.3482 28.2402 21.5932 28.0801 20.964 27.7598C20.3349 27.4395 19.8544 26.9876 19.5226 26.4042C19.2023 25.8093 19.0422 25.1229 19.0422 24.3451V23.0238H20.8268V24.2421C20.8268 25.0657 21.0555 25.6892 21.5131 26.1125C21.9707 26.5357 22.5427 26.7474 23.2291 26.7474C23.9154 26.7474 24.4874 26.5357 24.945 26.1125C25.4026 25.6892 25.6314 25.0657 25.6314 24.2421V23.0238H27.4331V24.3451C27.4331 25.1229 27.2672 25.8093 26.9355 26.4042C26.6152 26.9876 26.1404 27.4395 25.5113 27.7598C24.8821 28.0801 24.1214 28.2402 23.2291 28.2402ZM20.8268 23.6758H19.0422V17.5843C19.1108 17.5614 19.2252 17.5385 19.3854 17.5156C19.5455 17.4813 19.7057 17.4641 19.8658 17.4641C20.1976 17.4641 20.4378 17.5271 20.5865 17.6529C20.7467 17.7673 20.8268 17.9789 20.8268 18.2878V23.6758ZM27.4331 23.6758H25.6314V17.5843C25.7115 17.5614 25.8259 17.5385 25.9746 17.5156C26.1347 17.4813 26.3006 17.4641 26.4722 17.4641C26.8039 17.4641 27.0442 17.5271 27.1929 17.6529C27.353 17.7673 27.4331 17.9789 27.4331 18.2878V23.6758ZM36.6169 25.3231C36.5253 25.3918 36.3995 25.4547 36.2394 25.5119C36.0792 25.5691 35.9019 25.5977 35.7074 25.5977C35.4672 25.5977 35.2613 25.5634 35.0897 25.4947C34.9181 25.4261 34.798 25.3117 34.7293 25.1515C34.1917 23.9389 33.7284 22.8579 33.3394 21.9084C32.9505 20.9475 32.6416 20.1467 32.4128 19.5061H32.327C32.2927 20.3183 32.2584 21.0733 32.2241 21.7711C32.1897 22.469 32.1554 23.1439 32.1211 23.796C32.0868 24.448 32.0525 25.1172 32.0181 25.8036C31.9838 26.4785 31.9438 27.2049 31.898 27.9828C31.8065 28.0057 31.6864 28.0286 31.5377 28.0515C31.4004 28.0858 31.2574 28.103 31.1087 28.103C30.7884 28.103 30.5539 28.0458 30.4052 27.9314C30.2565 27.8055 30.1821 27.6225 30.1821 27.3823C30.1821 27.2107 30.1935 26.8789 30.2164 26.387C30.2507 25.8837 30.2851 25.2831 30.3194 24.5853C30.3651 23.8875 30.4109 23.1496 30.4566 22.3717C30.5138 21.5824 30.571 20.8045 30.6282 20.038C30.6969 19.2716 30.7541 18.5738 30.7998 17.9446C30.8914 17.8531 31.0401 17.7616 31.246 17.6701C31.4519 17.5671 31.7093 17.5156 32.0181 17.5156C32.3613 17.5156 32.6416 17.5785 32.859 17.7044C33.0878 17.8302 33.2593 18.0247 33.3737 18.2878C33.6369 18.8255 33.9 19.4146 34.1631 20.0552C34.4262 20.6844 34.6836 21.325 34.9352 21.9771C35.1869 22.6177 35.4271 23.2125 35.6559 23.7616H35.7417C36.1879 22.6177 36.6283 21.5138 37.063 20.4499C37.5092 19.3746 37.8867 18.4651 38.1955 17.7215C38.3214 17.6643 38.4758 17.6186 38.6588 17.5843C38.8533 17.5385 39.0421 17.5156 39.2251 17.5156C39.5568 17.5156 39.8257 17.5728 40.0316 17.6872C40.2375 17.7902 40.3633 17.9503 40.4091 18.1677C40.4548 18.3736 40.5063 18.7111 40.5635 19.1801C40.6207 19.6491 40.6779 20.1982 40.7351 20.8274C40.7923 21.4566 40.8438 22.1143 40.8895 22.8007C40.9467 23.4871 40.9982 24.162 41.044 24.8255C41.1012 25.4776 41.1469 26.0724 41.1813 26.6101C41.2156 27.1363 41.2385 27.5596 41.2499 27.8799C41.1241 27.96 40.9925 28.0172 40.8552 28.0515C40.718 28.0858 40.5521 28.103 40.3576 28.103C40.1288 28.103 39.9229 28.0572 39.7399 27.9657C39.5683 27.8627 39.471 27.6683 39.4482 27.3823C39.391 26.3413 39.3338 25.3289 39.2766 24.3451C39.2194 23.3498 39.1736 22.4404 39.1393 21.6167C39.105 20.7816 39.0707 20.0952 39.0363 19.5576H38.9677C38.7503 20.141 38.4472 20.8903 38.0583 21.8055C37.6807 22.7092 37.2003 23.8817 36.6169 25.3231Z" fill="#141218"/>
</g>
<g filter="url(#filter1_d_45_4822)">
<circle cx="10.0372" cy="31.1598" r="1.00938" fill="#141218"/>
</g>
<g filter="url(#filter2_d_45_4822)">
<circle cx="15.0841" cy="31.1598" r="1.00938" fill="#141218"/>
</g>
<g filter="url(#filter3_d_45_4822)">
<circle cx="20.131" cy="31.1598" r="1.00938" fill="#141218"/>
</g>
<g filter="url(#filter4_d_45_4822)">
<circle cx="25.1778" cy="31.1598" r="1.00938" fill="#141218"/>
</g>
<g filter="url(#filter5_d_45_4822)">
<circle cx="30.2247" cy="31.1598" r="1.00938" fill="#141218"/>
</g>
<g filter="url(#filter6_d_45_4822)">
<circle cx="35.2716" cy="31.1598" r="1.00938" fill="#141218"/>
</g>
<g filter="url(#filter7_d_45_4822)">
<circle cx="40.3185" cy="31.1598" r="1.00938" fill="#141218"/>
</g>
<rect x="9" y="9" width="32" height="3" rx="0.40375" fill="url(#paint1_linear_45_4822)"/>
<rect x="12.0283" y="10.0098" width="1.00938" height="1.00938" rx="0.40375" fill="white"/>
<rect x="37.2627" y="10.0098" width="1.00938" height="1.00938" rx="0.40375" fill="white"/>
<rect x="39.2812" y="10.0098" width="1.00938" height="1.00938" rx="0.40375" fill="white"/>
<rect x="35.2437" y="10.0098" width="1.00938" height="1.00938" rx="0.40375" fill="white"/>
<rect x="10.0093" y="10.0098" width="1.00938" height="1.00938" rx="0.40375" fill="white"/>
<rect x="14.0469" y="10.0098" width="2.01875" height="1.00938" rx="0.40375" fill="#141218"/>
<circle cx="25" cy="25" r="23.4859" stroke="white" stroke-width="3.02813"/>
<defs>
<filter id="filter0_d_45_4822" x="7.79504" y="16.8566" width="34.6662" height="12.8977" filterUnits="userSpaceOnUse" color-interpolation-filters="sRGB">
<feFlood flood-opacity="0" result="BackgroundImageFix"/>
<feColorMatrix in="SourceAlpha" type="matrix" values="0 0 0 0 0 0 0 0 0 0 0 0 0 0 0 0 0 0 127 0" result="hardAlpha"/>
<feOffset dx="0.201875" dy="0.504687"/>
<feGaussianBlur stdDeviation="0.504687"/>
<feComposite in2="hardAlpha" operator="out"/>
<feColorMatrix type="matrix" values="0 0 0 0 0.541176 0 0 0 0 0.027451 0 0 0 0 0.027451 0 0 0 0.6 0"/>
<feBlend mode="normal" in2="BackgroundImageFix" result="effect1_dropShadow_45_4822"/>
<feBlend mode="normal" in="SourceGraphic" in2="effect1_dropShadow_45_4822" result="shape"/>
</filter>
<filter id="filter1_d_45_4822" x="8.22033" y="29.6457" width="4.0373" height="4.0373" filterUnits="userSpaceOnUse" color-interpolation-filters="sRGB">
<feFlood flood-opacity="0" result="BackgroundImageFix"/>
<feColorMatrix in="SourceAlpha" type="matrix" values="0 0 0 0 0 0 0 0 0 0 0 0 0 0 0 0 0 0 127 0" result="hardAlpha"/>
<feOffset dx="0.201875" dy="0.504687"/>
<feGaussianBlur stdDeviation="0.504687"/>
<feComposite in2="hardAlpha" operator="out"/>
<feColorMatrix type="matrix" values="0 0 0 0 0.541176 0 0 0 0 0.027451 0 0 0 0 0.027451 0 0 0 0.6 0"/>
<feBlend mode="normal" in2="BackgroundImageFix" result="effect1_dropShadow_45_4822"/>
<feBlend mode="normal" in="SourceGraphic" in2="effect1_dropShadow_45_4822" result="shape"/>
</filter>
<filter id="filter2_d_45_4822" x="13.2672" y="29.6457" width="4.0373" height="4.0373" filterUnits="userSpaceOnUse" color-interpolation-filters="sRGB">
<feFlood flood-opacity="0" result="BackgroundImageFix"/>
<feColorMatrix in="SourceAlpha" type="matrix" values="0 0 0 0 0 0 0 0 0 0 0 0 0 0 0 0 0 0 127 0" result="hardAlpha"/>
<feOffset dx="0.201875" dy="0.504687"/>
<feGaussianBlur stdDeviation="0.504687"/>
<feComposite in2="hardAlpha" operator="out"/>
<feColorMatrix type="matrix" values="0 0 0 0 0.541176 0 0 0 0 0.027451 0 0 0 0 0.027451 0 0 0 0.6 0"/>
<feBlend mode="normal" in2="BackgroundImageFix" result="effect1_dropShadow_45_4822"/>
<feBlend mode="normal" in="SourceGraphic" in2="effect1_dropShadow_45_4822" result="shape"/>
</filter>
<filter id="filter3_d_45_4822" x="18.3141" y="29.6457" width="4.0373" height="4.0373" filterUnits="userSpaceOnUse" color-interpolation-filters="sRGB">
<feFlood flood-opacity="0" result="BackgroundImageFix"/>
<feColorMatrix in="SourceAlpha" type="matrix" values="0 0 0 0 0 0 0 0 0 0 0 0 0 0 0 0 0 0 127 0" result="hardAlpha"/>
<feOffset dx="0.201875" dy="0.504687"/>
<feGaussianBlur stdDeviation="0.504687"/>
<feComposite in2="hardAlpha" operator="out"/>
<feColorMatrix type="matrix" values="0 0 0 0 0.541176 0 0 0 0 0.027451 0 0 0 0 0.027451 0 0 0 0.6 0"/>
<feBlend mode="normal" in2="BackgroundImageFix" result="effect1_dropShadow_45_4822"/>
<feBlend mode="normal" in="SourceGraphic" in2="effect1_dropShadow_45_4822" result="shape"/>
</filter>
<filter id="filter4_d_45_4822" x="23.361" y="29.6457" width="4.0373" height="4.0373" filterUnits="userSpaceOnUse" color-interpolation-filters="sRGB">
<feFlood flood-opacity="0" result="BackgroundImageFix"/>
<feColorMatrix in="SourceAlpha" type="matrix" values="0 0 0 0 0 0 0 0 0 0 0 0 0 0 0 0 0 0 127 0" result="hardAlpha"/>
<feOffset dx="0.201875" dy="0.504687"/>
<feGaussianBlur stdDeviation="0.504687"/>
<feComposite in2="hardAlpha" operator="out"/>
<feColorMatrix type="matrix" values="0 0 0 0 0.541176 0 0 0 0 0.027451 0 0 0 0 0.027451 0 0 0 0.6 0"/>
<feBlend mode="normal" in2="BackgroundImageFix" result="effect1_dropShadow_45_4822"/>
<feBlend mode="normal" in="SourceGraphic" in2="effect1_dropShadow_45_4822" result="shape"/>
</filter>
<filter id="filter5_d_45_4822" x="28.4078" y="29.6457" width="4.0373" height="4.0373" filterUnits="userSpaceOnUse" color-interpolation-filters="sRGB">
<feFlood flood-opacity="0" result="BackgroundImageFix"/>
<feColorMatrix in="SourceAlpha" type="matrix" values="0 0 0 0 0 0 0 0 0 0 0 0 0 0 0 0 0 0 127 0" result="hardAlpha"/>
<feOffset dx="0.201875" dy="0.504687"/>
<feGaussianBlur stdDeviation="0.504687"/>
<feComposite in2="hardAlpha" operator="out"/>
<feColorMatrix type="matrix" values="0 0 0 0 0.541176 0 0 0 0 0.027451 0 0 0 0 0.027451 0 0 0 0.6 0"/>
<feBlend mode="normal" in2="BackgroundImageFix" result="effect1_dropShadow_45_4822"/>
<feBlend mode="normal" in="SourceGraphic" in2="effect1_dropShadow_45_4822" result="shape"/>
</filter>
<filter id="filter6_d_45_4822" x="33.4547" y="29.6457" width="4.0373" height="4.0373" filterUnits="userSpaceOnUse" color-interpolation-filters="sRGB">
<feFlood flood-opacity="0" result="BackgroundImageFix"/>
<feColorMatrix in="SourceAlpha" type="matrix" values="0 0 0 0 0 0 0 0 0 0 0 0 0 0 0 0 0 0 127 0" result="hardAlpha"/>
<feOffset dx="0.201875" dy="0.504687"/>
<feGaussianBlur stdDeviation="0.504687"/>
<feComposite in2="hardAlpha" operator="out"/>
<feColorMatrix type="matrix" values="0 0 0 0 0.541176 0 0 0 0 0.027451 0 0 0 0 0.027451 0 0 0 0.6 0"/>
<feBlend mode="normal" in2="BackgroundImageFix" result="effect1_dropShadow_45_4822"/>
<feBlend mode="normal" in="SourceGraphic" in2="effect1_dropShadow_45_4822" result="shape"/>
</filter>
<filter id="filter7_d_45_4822" x="38.5016" y="29.6457" width="4.0373" height="4.0373" filterUnits="userSpaceOnUse" color-interpolation-filters="sRGB">
<feFlood flood-opacity="0" result="BackgroundImageFix"/>
<feColorMatrix in="SourceAlpha" type="matrix" values="0 0 0 0 0 0 0 0 0 0 0 0 0 0 0 0 0 0 127 0" result="hardAlpha"/>
<feOffset dx="0.201875" dy="0.504687"/>
<feGaussianBlur stdDeviation="0.504687"/>
<feComposite in2="hardAlpha" operator="out"/>
<feColorMatrix type="matrix" values="0 0 0 0 0.541176 0 0 0 0 0.027451 0 0 0 0 0.027451 0 0 0 0.6 0"/>
<feBlend mode="normal" in2="BackgroundImageFix" result="effect1_dropShadow_45_4822"/>
<feBlend mode="normal" in="SourceGraphic" in2="effect1_dropShadow_45_4822" result="shape"/>
</filter>
<linearGradient id="paint0_linear_45_4822" x1="25" y1="0" x2="25" y2="50" gradientUnits="userSpaceOnUse">
<stop offset="0.120413" stop-color="#8A0707" stop-opacity="0"/>
<stop offset="0.188382" stop-color="#8A0707"/>
<stop offset="0.20735" stop-color="#8A0707" stop-opacity="0"/>
</linearGradient>
<linearGradient id="paint1_linear_45_4822" x1="9" y1="10.5" x2="41" y2="10.5" gradientUnits="userSpaceOnUse">
<stop stop-color="#B51B1B"/>
<stop offset="0.115" stop-color="#A50C0C"/>
<stop offset="0.67" stop-color="#8A0707"/>
<stop offset="0.9999" stop-color="#3F0404"/>
</linearGradient>
</defs>
</svg>
